HIERARCHY
ROOT pelvis
{
  OFFSET 0 100 0
  CHANNELS 6 Xposition Yposition Zposition Zrotation Xrotation Yrotation
  JOINT pelvis_right_femur
  {
    OFFSET -10.78128 -3.44521 -0.5502486
    CHANNELS 3 Zrotation Xrotation Yrotation
    JOINT right_femur_tibia
    {
      OFFSET -0.8047443 -44.0398 -0.1307829
      CHANNELS 3 Zrotation Xrotation Yrotation
      JOINT right_tibia_foot
      {
        OFFSET 3.006224 -47.83518 -5
        CHANNELS 3 Zrotation Xrotation Yrotation
        End Site
        {
          OFFSET 0 -5 15
        }
      }
    }
  }
  JOINT pelvis_left_femur
  {
    OFFSET 10.78128 -3.44521 -0.5502486
    CHANNELS 3 Zrotation Xrotation Yrotation
    JOINT left_femur_tibia
    {
      OFFSET 0.8047443 -44.0398 -0.1307829
      CHANNELS 3 Zrotation Xrotation Yrotation
      JOINT left_tibia_foot
      {
        OFFSET -4.370144 -48.10324 -4.275266
        CHANNELS 3 Zrotation Xrotation Yrotation
        End Site
        {
          OFFSET 0 -5 15
        }
      }
    }
  }
  JOINT pelvis_spine1
  {
    OFFSET 0 6.468898 -3.129235
    CHANNELS 3 Zrotation Xrotation Yrotation
    JOINT spine1
    {
      OFFSET 0 23.15396 4.99043
      CHANNELS 3 Zrotation Xrotation Yrotation
      JOINT spine2
      {
        OFFSET 0 20.79997 -5.064912
        CHANNELS 3 Zrotation Xrotation Yrotation
        JOINT neck
        {
          OFFSET 0 14.38658 9.616178
          CHANNELS 3 Zrotation Xrotation Yrotation
          End Site
          {
            OFFSET 0 20 0
          }
        }
      }
      JOINT right_manubrium
      {
        OFFSET -5.722621 16.35077 3.967754
        CHANNELS 3 Zrotation Xrotation Yrotation
        JOINT right_clavicle
        {
          OFFSET -13.16364 1.694482 -4.693211
          CHANNELS 3 Zrotation Xrotation Yrotation
          JOINT right_humerus
          {
            OFFSET -28.5034 -0.3100689 -2.792744
            CHANNELS 3 Zrotation Xrotation Yrotation
            JOINT right_radius
            {
              OFFSET -25.15693 0.02248979 -1.271978
              CHANNELS 3 Zrotation Xrotation Yrotation
              End Site
              {
                OFFSET -15 0 0
              }
            }
          }
        }
      }
      JOINT left_manubrium
      {
        OFFSET 5.722621 16.35077 3.967754
        CHANNELS 3 Zrotation Xrotation Yrotation
        JOINT left_clavicle
        {
          OFFSET 13.16364 1.694482 -4.693211
          CHANNELS 3 Zrotation Xrotation Yrotation
          JOINT left_humerus
          {
            OFFSET 29.39168 -1.063119 -2.237045
            CHANNELS 3 Zrotation Xrotation Yrotation
            JOINT left_radius
            {
              OFFSET 24.59957 -0.9528479 0.9047498
              CHANNELS 3 Zrotation Xrotation Yrotation
              End Site
              {
                OFFSET 15 -0 -0
              }
            }
          }
        }
      }
    }
  }
}
MOTION
Frames: 21
Frame Time: 0.0416666666667
254.9564 110.7912 3363.858 0.7359515 -9.912629 4.188986 1.664842 -13.61787 -6.13933 -0 27.31537 -0 -11.73112 13.28652 -1.200237 -4.69652 12.49029 -6.794792 -0 13.41922 -0 4.024588 -15.31009 15.75114 -0.4718416 -2.729603 2.126793 -0.111214 14.50421 -6.871734 1.863423 23.39418 5.087603 1.472611 -20.54989 7.603387 -5.907601 -21.60396 10.90796 98.69524 11.80174 -19.63213 -0 0 7.208963 -26.5615 9.940808 12.7804 5.675332 -26.55873 -8.769356 -85.69574 13.1064 14.33143 0 0 -20.66716 14.84662 16.03239 -4.381171
255.4775 110.7855 3370.451 0.2863236 -9.311748 4.549847 2.452438 -18.05744 -6.734613 -0 19.59778 -0 -13.26795 12.91031 -0.8827438 -4.358776 15.28545 -6.53292 -0 16.35973 -0 4.503895 -15.45792 15.03736 0.06410713 -3.003736 1.841797 0.4540221 14.90673 -7.60995 1.773123 23.1655 5.046563 1.445064 -21.32106 7.579114 -6.345397 -21.59195 11.10264 99.8628 11.34418 -21.64062 -0 0 5.486444 -25.83729 10.39443 12.06047 5.945345 -28.18304 -9.095986 -85.04813 11.92218 13.10541 0 0 -23.61952 17.01518 16.5031 -6.943193
255.8533 110.6612 3377.147 -0.06717549 -9.103218 4.754659 3.167294 -20.94715 -7.227519 -0 13.28016 -0 -14.48338 12.88634 -0.6842934 -4.014376 17.10225 -5.932405 -0 20.38571 -0 4.533565 -15.12059 14.22869 0.5870635 -3.172443 1.670269 0.8373222 15.31533 -8.127626 1.737957 23.03103 4.930347 1.392414 -21.74083 7.480046 -6.826561 -21.52129 11.27046 100.9247 10.60934 -23.13812 -0 0 3.966682 -25.56859 10.79875 11.57923 6.078045 -29.48868 -9.444815 -84.49824 10.76046 12.04924 0 0 -25.9163 18.69346 16.67796 -8.943333
256.1299 110.5912 3384.07 -0.2466455 -9.340851 4.837269 3.767998 -21.74049 -7.499755 -0 9.274328 -0 -15.10979 13.17865 -0.6991133 -3.696538 17.57301 -4.995905 -0 25.54218 -0 3.946988 -14.21206 13.37479 1.032138 -3.17012 1.655828 0.9750142 15.65341 -8.330473 1.772923 23.01705 4.744166 1.326511 -21.68326 7.301326 -7.232225 -21.31499 11.39472 101.6751 9.773098 -23.91512 -0 0 2.834604 -25.79241 11.11865 11.39422 6.033927 -30.23082 -9.751628 -84.08557 9.850445 11.23675 0 0 -27.21834 19.47021 16.51581 -9.910839
256.3599 110.7279 3391.297 -0.272033 -9.885833 4.816492 4.306401 -20.47876 -7.483312 -0 7.290286 -0 -15.12386 13.43522 -0.9194811 -3.337457 16.55705 -3.836965 -0 31.42694 -0 2.840663 -12.7794 12.59371 1.381928 -3.000769 1.825876 0.9001988 15.87665 -8.229833 1.862985 23.08829 4.5027 1.257329 -21.22198 7.054943 -7.481425 -21.0244 11.48172 101.9813 9.072935 -23.96976 -0 0 2.252088 -26.35387 11.36394 11.47441 5.840802 -30.36816 -9.943838 -83.85714 9.308703 10.78509 0 0 -27.51615 19.30038 16.08903 -9.792815
256.5806 111.1303 3398.813 -0.2345178 -10.46632 4.683748 4.861049 -17.66048 -7.175482 -0 6.243811 -0 -14.70969 13.12826 -1.236049 -2.818892 14.13099 -2.660306 -0 37.13464 -0 1.531721 -11.01883 12.0523 1.647824 -2.730287 2.187105 0.7150147 15.97169 -7.917928 1.969391 23.1677 4.23163 1.190269 -20.5857 6.770055 -7.540811 -20.81335 11.54873 101.776 8.743872 -23.43513 -0 0 2.362026 -26.97597 11.56895 11.73272 5.574971 -30.02269 -9.954781 -83.87735 9.14755 10.85748 0 0 -27.03247 18.44929 15.53494 -8.886513
256.814 111.7364 3406.517 -0.2208052 -10.83044 4.416801 5.446722 -13.87288 -6.631892 -0 5.23019 -0 -14.09971 11.86969 -1.495882 -2.07943 10.51199 -1.677215 -0 41.48838 -0 0.3820391 -9.21873 11.90303 1.831232 -2.442633 2.721547 0.5159109 15.94075 -7.494527 2.051595 23.18652 3.965355 1.126869 -20.01556 6.486511 -7.412543 -20.86267 11.6055 101.0385 8.938252 -22.43847 -0 0 3.273741 -27.41703 11.75213 12.09298 5.313841 -29.34776 -9.745997 -84.2135 9.334714 11.60904 0 0 -25.99192 17.2496 15.00319 -7.563785
257.0743 112.3939 3414.266 -0.2685553 -10.86916 4.006185 5.997434 -9.650756 -5.976683 -0 3.980527 -0 -13.49375 9.687896 -1.565553 -1.175647 6.100809 -1.01437 -0 43.50278 -0 -0.3332744 -7.669672 12.20225 1.923426 -2.212042 3.371861 0.3504585 15.81316 -7.033847 2.085469 23.11966 3.736478 1.064604 -19.66543 6.244214 -7.154745 -21.28164 11.65028 99.85828 9.612358 -21.0796 -0 0 4.953495 -27.59341 11.90211 12.51918 5.106906 -28.49364 -9.346537 -84.88676 9.769387 13.07101 0 0 -24.5634 16.00114 14.62177 -6.16265
257.3751 112.9323 3421.93 -0.3627562 -10.65076 3.471235 6.422255 -5.391594 -5.368775 -0 2.77109 -0 -13.01436 7.028433 -1.389166 -0.243828 1.412159 -0.6696058 -0 42.86195 -0 -0.5079923 -6.543373 12.87964 1.925172 -2.082291 4.053404 0.2113926 15.64773 -6.57493 2.071604 22.99104 3.560693 0.9980487 -19.5598 6.067347 -6.877769 -22.06405 11.67513 98.4512 10.51701 -19.45658 -0 0 7.181007 -27.60248 11.99121 13.01313 4.965942 -27.59688 -8.853749 -85.83915 10.27871 15.09683 0 0 -22.8761 14.92325 14.45935 -4.936621
257.7328 113.2241 3429.427 -0.467397 -10.31458 2.850499 6.677389 -1.238525 -4.904268 -0 1.98542 -0 -12.68041 4.355785 -0.9928903 0.6108377 -3.215649 -0.5614764 -0 39.90363 -0 -0.197669 -5.836181 13.81644 1.84979 -2.056248 4.707166 0.06678184 15.49388 -6.121531 2.025467 22.84043 3.433372 0.9230505 -19.63421 5.9561 -6.670477 -23.13069 11.67333 97.01314 11.39885 -17.64306 -0 0 9.714697 -27.59597 12.00106 13.59102 4.875806 -26.72892 -8.358427 -86.98284 10.72105 17.48672 0 0 -20.99834 14.08878 14.50972 -3.975475
258.1674 113.1934 3436.7 -0.560107 -9.940892 2.181062 6.781447 2.843667 -4.578588 -0 1.740049 -0 -12.44882 1.834682 -0.4319437 1.364055 -7.726098 -0.6122425 -0 35.17059 -0 0.4822564 -5.447478 14.93063 1.713949 -2.112968 5.323296 -0.1006131 15.36431 -5.664349 1.959931 22.68819 3.342017 0.8393077 -19.82261 5.896643 -6.550692 -24.40437 11.64502 95.60915 12.16493 -15.67483 -0 0 12.43467 -27.64223 11.93578 14.25358 4.817605 -25.89244 -7.890189 -88.26574 11.05014 20.11828 0 0 -18.95563 13.45433 14.72766 -3.234546
258.6982 112.7971 3443.708 -0.6346889 -9.533592 1.489276 6.774958 6.87644 -4.321728 -0 1.932052 -0 -12.25273 -0.5984812 0.2327262 2.025311 -12.15974 -0.7845069 -0 29.18382 -0 1.41141 -5.276805 16.17476 1.529077 -2.223748 5.913621 -0.2830233 15.23928 -5.202954 1.8809 22.53468 3.279425 0.752259 -20.08713 5.875168 -6.474207 -25.81019 11.5974 94.20554 12.86359 -13.58576 -0 0 15.29458 -27.70793 11.81483 14.96896 4.779239 -25.05934 -7.431741 -89.66436 11.29734 22.91424 0 0 -16.78485 12.92553 15.05582 -2.607396
259.337 112.0243 3450.422 -0.6863995 -9.080396 0.7935787 6.678891 10.72978 -4.039191 -0 2.479616 -0 -12.00551 -2.996927 0.9136536 2.575134 -16.42043 -1.070729 -0 22.60808 -0 2.43056 -5.255015 17.47759 1.300205 -2.35036 6.474124 -0.4586457 15.0818 -4.754185 1.794685 22.38016 3.247664 0.6753123 -20.38695 5.882811 -6.360922 -27.21375 11.54273 92.75986 13.58897 -11.46789 -0 0 18.18072 -27.71231 11.66246 15.66627 4.750808 -24.20267 -6.958958 -91.12252 11.54265 25.71719 0 0 -14.5851 12.38293 15.4118 -1.955953
260.0782 110.9217 3456.846 -0.7009525 -8.63327 0.1137579 6.476064 14.09628 -3.661654 -0 3.526739 -0 -11.61965 -5.169731 1.482063 2.937378 -20.13554 -1.457446 -0 16.46661 -0 3.303645 -5.335421 18.68938 1.032946 -2.442411 6.95994 -0.6124213 14.86343 -4.348028 1.717255 22.24647 3.252819 0.6275906 -20.63707 5.913437 -6.141227 -28.38154 11.49257 91.32589 14.36494 -9.514656 -0 0 20.79741 -27.61562 11.49692 16.25048 4.716871 -23.32565 -6.484629 -92.48773 11.87879 28.19654 0 0 -12.53694 11.71222 15.67423 -1.147463
260.8962 109.6175 3463.057 -0.6563743 -8.34432 -0.5183411 6.124078 16.63407 -3.200656 -0 5.484962 -0 -11.05544 -6.624105 1.800974 3.010375 -22.75101 -1.894706 -0 11.93645 -0 3.774552 -5.484602 19.60364 0.7396871 -2.452376 7.293147 -0.7571819 14.59302 -4.009322 1.674625 22.18205 3.295649 0.6238563 -20.7101 5.960813 -5.816403 -29.04898 11.44557 90.10655 15.0676 -7.978559 -0 0 22.71754 -27.49617 11.31714 16.65216 4.657023 -22.4752 -6.079198 -93.52219 12.35952 29.92209 0 0 -10.83738 10.86405 15.71535 -0.125149
261.7562 108.2977 3469.19 -0.5396418 -8.378507 -1.056035 5.598942 18.20441 -2.754974 -0 8.746373 -0 -10.35819 -6.867955 1.805656 2.746146 -23.89683 -2.311869 -0 9.612097 -0 3.735398 -5.689584 20.0867 0.4370121 -2.367541 7.413774 -0.9286196 14.31869 -3.740185 1.686692 22.23206 3.36774 0.662675 -20.51639 6.020106 -5.473528 -29.09827 11.38344 89.34871 15.48948 -7.021612 -0 0 23.65339 -27.5159 11.10296 16.8782 4.560706 -21.71998 -5.831327 -94.0418 12.95233 30.63613 0 0 -9.573579 9.904295 15.48777 1.033652
262.6321 107.1414 3475.389 -0.3580187 -8.781794 -1.447454 4.925331 18.93653 -2.442069 -0 13.31009 -0 -9.631916 -5.79033 1.546856 2.190405 -23.64345 -2.666754 -0 9.083258 -0 3.314437 -5.963865 20.17343 0.1387433 -2.221574 7.322957 -1.15278 14.09498 -3.525385 1.751187 22.40176 3.457315 0.7270496 -20.07957 6.090974 -5.221772 -28.64767 11.28809 89.16432 15.49689 -6.611436 -0 0 23.65972 -27.78953 10.83615 16.99903 4.439058 -21.11275 -5.783186 -94.04545 13.54905 30.43315 0 0 -8.684565 8.982594 15.0698 2.153833
263.514 106.2773 3481.758 -0.1266367 -9.485604 -1.646563 4.15418 19.03588 -2.334114 -0 18.84541 -0 -8.972899 -3.607017 1.1295 1.428813 -22.30131 -2.959495 -0 9.483253 -0 2.739355 -6.336049 19.9911 -0.1470532 -2.063895 7.060521 -1.430159 13.95402 -3.352065 1.850847 22.66396 3.556832 0.7983323 -19.49576 6.176721 -5.126494 -27.91372 11.15629 89.5151 15.08026 -6.609495 -0 0 22.98465 -28.32891 10.51382 17.08342 4.314924 -20.67907 -5.924449 -93.65444 14.03929 29.59029 0 0 -8.064249 8.237465 14.59458 3.071811
264.4047 105.7859 3488.355 0.1497411 -10.39693 -1.614282 3.321413 18.58831 -2.451869 -0 25.03178 -0 -8.429139 -0.5635172 0.629588 0.5148728 -20.08721 -3.216357 -0 10.16082 -0 2.174687 -6.845071 19.64126 -0.419847 -1.927671 6.657575 -1.745728 13.90133 -3.220881 1.969447 22.98981 3.667257 0.8674505 -18.85132 6.283212 -5.197818 -27.04241 10.99504 90.31851 14.29649 -6.91128 -0 0 21.82244 -29.08368 10.14153 17.15615 4.207933 -20.42776 -6.228162 -92.97779 14.36944 28.31364 0 0 -7.659348 7.740221 14.16077 3.702227
265.3146 105.7157 3495.197 0.4771933 -11.41765 -1.317421 2.442422 17.51254 -2.778402 -0 31.62115 -0 -8.007308 3.134239 0.0802446 -0.5392082 -17.04796 -3.485585 -0 10.75832 -0 1.706795 -7.548305 19.18017 -0.6860549 -1.827735 6.125327 -2.071614 13.92032 -3.149499 2.094142 23.35482 3.799074 0.9357186 -18.2121 6.419531 -5.400175 -26.08692 10.81574 91.48379 13.24774 -7.482877 -0 0 20.26571 -29.95689 9.730844 17.19474 4.134218 -20.36166 -6.661986 -92.07969 14.54807 26.69172 0 0 -7.489781 7.508462 13.82048 4.024215
266.2564 106.0784 3502.253 0.8538083 -12.39146 -0.7404499 1.546593 15.59409 -3.259484 -0 38.15966 -0 -7.705807 7.15474 -0.494109 -1.716026 -13.18676 -3.839866 -0 11.02618 -0 1.402599 -8.515937 18.65753 -0.9507802 -1.772897 5.476516 -2.352494 13.97433 -3.177484 2.207414 23.72099 3.969473 1.010775 -17.66581 6.595981 -5.65243 -25.07203 10.63729 92.86572 12.12415 -8.337197 -0 0 18.39342 -30.76703 9.313886 17.13524 4.114806 -20.48635 -7.169893 -91.02415 14.63092 24.78679 0 0 -7.647223 7.541643 13.61182 4.039418
